<svg xmlns="http://www.w3.org/2000/svg" viewBox="0 0 512 512" width="512" height="512" role="img" aria-label="ZIA GOODS" xmlns:c2pa="http://c2pa.org/manifest"><metadata><c2pa:manifest>AAAWgmp1bWIAAAAeanVtZGMycGEAEQAQgAAAqgA4m3EDYzJwYQAAABZcanVtYgAAAEdqdW1kYzJtYQARABCAAACqADibcQN1cm46YzJwYTo5YzRkY2EzZC0yNWY0LTQ3MDAtYjhiOC0xM2QyZTE2MDMzMDkAAAADl2p1bWIAAAApanVtZGMyYXMAEQAQgAAAqgA4m3EDYzJwYS5hc3NlcnRpb25zAAAAALxqdW1iAAAARGp1bWRjYm9yABEAEIAAAKoAOJtxE2MycGEuaW5ncmVkaWVudC52MwAAAAAYYzJzaKQrb1+0k9QlpMK7TVoW5msAAABwY2JvcqNpZGM6Zm9ybWF0bWltYWdlL3N2Zyt4bWxqaW5zdGFuY2VJRHgseG1wOmlpZDozMzg3Njg2Mi1mNzUwLTQzMDUtOTFiZC0xMmQ2YjZmMzlhMWRscmVsYXRpb25zaGlwaHBhcmVudE9mAAAB4mp1bWIAAABBanVtZGNib3IAEQAQgAAAqgA4m3ETYzJwYS5hY3Rpb25zLnYyAAAAABhjMnNofmCz6eSQSEYy+E+TjNPXYwAAAZljYm9yomdhY3Rpb25zgqJmYWN0aW9ua2MycGEub3BlbmVkanBhcmFtZXRlcnOha2luZ3JlZGllbnRzgaJjdXJseC1zZWxmI2p1bWJmPWMycGEuYXNzZXJ0aW9ucy9jMnBhLmluZ3JlZGllbnQudjNkaGFzaFggpW88SDvl/oBlBl9cjWbHxS4VpJawmuqcYYCG/MsT7rekZmFjdGlvbngdY29tLmFudGhyb3BpYy5jbGF1ZGUucHJvdmlkZWRqcGFyYW1ldGVyc6F4H2NvbS5hbnRocm9waWMub3JpZ2luLWNvbmZpZGVuY2VndW5rbm93bmtkZXNjcmlwdGlvbnhmQ2xhdWRlIHByb3ZpZGVkIHRoaXMgZmlsZSBhdCB0aGUgcmVxdWVzdCBvZiBhIHVzZXIgYW5kIG1heSBoYXZlIGNyZWF0ZWQgb3IgbW9kaWZpZWQgdGhlIGZpbGUgY29udGVudHMubXNvZnR3YXJlQWdlbnShZG5hbWVmQ2xhdWRlcmFsbEFjdGlvbnNJbmNsdWRlZPUAAADIanVtYgAAAEBqdW1kY2JvcgARABCAAACqADibcRNjMnBhLmhhc2guZGF0YQAAAAAYYzJzaAUm9ETTxR1VvQq7RBw95sIAAACAY2JvcqVjYWxnZnNoYTI1NmNwYWRNAAAAAAAAAAAAAAAAAGRoYXNoWCCw0gxAxJM0vNrCMGn1cCuTCeloOXKjcwVcC0TyHkxommRuYW1lbmp1bWJmIG1hbmlmZXN0amV4Y2x1c2lvbnOBomVzdGFydBi4Zmxlbmd0aBkeBAAAAj5qdW1iAAAAJ2p1bWRjMmNsABEAEIAAAKoAOJtxA2MycGEuY2xhaW0udjIAAAACD2Nib3KlY2FsZ2ZzaGEyNTZpc2lnbmF0dXJleE1zZWxmI2p1bWJmPS9jMnBhL3VybjpjMnBhOjljNGRjYTNkLTI1ZjQtNDcwMC1iOGI4LTEzZDJlMTYwMzMwOS9jMnBhLnNpZ25hdHVyZWppbnN0YW5jZUlEeCx4bXA6aWlkOmY2YmVmZWRlLTI4NjEtNDBhZS1iN2ZiLTM0Y2E1YjdjZThkNnJjcmVhdGVkX2Fzc2VydGlvbnODomN1cmx4LXNlbGYjanVtYmY9YzJwYS5hc3NlcnRpb25zL2MycGEuaW5ncmVkaWVudC52M2RoYXNoWCClbzxIO+X+gGUGX1yNZsfFLhWklrCa6pxhgIb8yxPut6JjdXJseCpzZWxmI2p1bWJmPWMycGEuYXNzZXJ0aW9ucy9jMnBhLmFjdGlvbnMudjJkaGFzaFggid2jb8xSG1NbJTJclPQ9FoabEeuWn55Auhi6B7ROJ16iY3VybHgpc2VsZiNqdW1iZj1jMnBhLmFzc2VydGlvbnMvYzJwYS5oYXNoLmRhdGFkaGFzaFggR1lPGUsypHXB3m9RkzkMRXy2dp5KMDgFH3vp+ngRAMZ0Y2xhaW1fZ2VuZXJhdG9yX2luZm+jZG5hbWVvQW50aHJvcGljIEZpbGVzZ3ZlcnNpb25lMS4wLjBrc3BlY1ZlcnNpb25lMi40LjAAABA4anVtYgAAAChqdW1kYzJjcwARABCAAACqADibcQNjMnBhLnNpZ25hdHVyZQAAABAIY2JvctKEWQISogEmGCFZAgowggIGMIIBjaADAgECAhRA5aAK7sI50L64g/oGQgU9Z1UTADAKBggqhkjOPQQDAzBJMRcwFQYDVQQKEw5BbnRocm9waWMsIFBCQzEuMCwGA1UEAxMlQW50aHJvcGljIENvbnRlbnQgQ3JlZGVudGlhbHMgUm9vdCBDQTAeFw0yNjA4MDcxODQzNTZaFw0yODA4MDYxOTQzNTZaMEQxFzAVBgNVBAoTDkFudGhyb3BpYywgUEJDMSkwJwYDVQQDEyBBbnRocm9waWMgQ2xhdWRlIENvbnRlbnQgU2lnbmluZzBZMBMGByqGSM49AgEGCCqGSM49AwEHA0IABJh6CmvLUBgFFNU0vUKlOVtE6djd17L5SuwX0LemFisBM3dkd/3cyjxFA3Qo5S46fX0/ihY0VZ7mfb9KF703t5OjWDBWMA4GA1UdDwEB/wQEAwIHgDAVBgNVHSUEDjAMBgorBgEEAYPoXgIBMAwGA1UdEwEB/wQCMAAwHwYDVR0jBBgwFoAUzlHiBIFOZFsj+OPEz5o+nMHXXMIwCgYIKoZIzj0EAwMDZwAwZAIwMXMdFJ4BetLLVY7ORuE9noqbbAZOZn/aArXyTwFAZfKrPzxF2vPoJNf1+UCdg1XGAjBwX1zd9WGqYkqmL5SFqw1QySjr1zJfpJM9+1rdDwSPLMOPOjKuiXjoU/pUUeG9RwmhY3BhZFkNngAAAAAAAAAAAAAAAAAAAAAAAAAAAAAAAAAAAAAAAAAAAAAAAAAAAAAAAAAAAAAAAAAAAAAAAAAAAAAAAAAAAAAAAAAAAAAAAAAAAAAAAAAAAAAAAAAAAAAAAAAAAAAAAAAAAAAAAAAAAAAAAAAAAAAAAAAAAAAAAAAAAAAAAAAAAAAAAAAAAAAAAAAAAAAAAAAAAAAAAAAAAAAAAAAAAAAAAAAAAAAAAAAAAAAAAAAAAAAAAAAAAAAAAAAAAAAAAAAAAAAAAAAAAAAAAAAAAAAAAAAAAAAAAAAAAAAAAAAAAAAAAAAAAAAAAAAAAAAAAAAAAAAAAAAAAAAAAAAAAAAAAAAAAAAAAAAAAAAAAAAAAAAAAAAAAAAAAAAAAAAAAAAAAAAAAAAAAAAAAAAAAAAAAAAAAAAAAAAAAAAAAAAAAAAAAAAAAAAAAAAAAAAAAAAAAAAAAAAAAAAAAAAAAAAAAAAAAAAAAAAAAAAAAAAAAAAAAAAAAAAAAAAAAAAAAAAAAAAAAAAAAAAAAAAAAAAAAAAAAAAAAAAAAAAAAAAAAAAAAAAAAAAAAAAAAAAAAAAAAAAAAAAAAAAAAAAAAAAAAAAAAAAAAAAAAAAAAAAAAAAAAAAAAAAAAAAAAAAAAAAAAAAAAAAAAAAAAAAAAAAAAAAAAAAAAAAAAAAAAAAAAAAAAAAAAAAAAAAAAAAAAAAAAAAAAAAAAAAAAAAAAAAAAAAAAAAAAAAAAAAAAAAAAAAAAAAAAAAAAAAAAAAAAAAAAAAAAAAAAAAAAAAAAAAAAAAAAAAAAAAAAAAAAAAAAAAAAAAAAAAAAAAAAAAAAAAAAAAAAAAAAAAAAAAAAAAAAAAAAAAAAAAAAAAAAAAAAAAAAAAAAAAAAAAAAAAAAAAAAAAAAAAAAAAAAAAAAAAAAAAAAAAAAAAAAAAAAAAAAAAAAAAAAAAAAAAAAAAAAAAAAAAAAAAAAAAAAAAAAAAAAAAAAAAAAAAAAAAAAAAAAAAAAAAAAAAAAAAAAAAAAAAAAAAAAAAAAAAAAAAAAAAAAAAAAAAAAAAAAAAAAAAAAAAAAAAAAAAAAAAAAAAAAAAAAAAAAAAAAAAAAAAAAAAAAAAAAAAAAAAAAAAAAAAAAAAAAAAAAAAAAAAAAAAAAAAAAAAAAAAAAAAAAAAAAAAAAAAAAAAAAAAAAAAAAAAAAAAAAAAAAAAAAAAAAAAAAAAAAAAAAAAAAAAAAAAAAAAAAAAAAAAAAAAAAAAAAAAAAAAAAAAAAAAAAAAAAAAAAAAAAAAAAAAAAAAAAAAAAAAAAAAAAAAAAAAAAAAAAAAAAAAAAAAAAAAAAAAAAAAAAAAAAAAAAAAAAAAAAAAAAAAAAAAAAAAAAAAAAAAAAAAAAAAAAAAAAAAAAAAAAAAAAAAAAAAAAAAAAAAAAAAAAAAAAAAAAAAAAAAAAAAAAAAAAAAAAAAAAAAAAAAAAAAAAAAAAAAAAAAAAAAAAAAAAAAAAAAAAAAAAAAAAAAAAAAAAAAAAAAAAAAAAAAAAAAAAAAAAAAAAAAAAAAAAAAAAAAAAAAAAAAAAAAAAAAAAAAAAAAAAAAAAAAAAAAAAAAAAAAAAAAAAAAAAAAAAAAAAAAAAAAAAAAAAAAAAAAAAAAAAAAAAAAAAAAAAAAAAAAAAAAAAAAAAAAAAAAAAAAAAAAAAAAAAAAAAAAAAAAAAAAAAAAAAAAAAAAAAAAAAAAAAAAAAAAAAAAAAAAAAAAAAAAAAAAAAAAAAAAAAAAAAAAAAAAAAAAAAAAAAAAAAAAAAAAAAAAAAAAAAAAAAAAAAAAAAAAAAAAAAAAAAAAAAAAAAAAAAAAAAAAAAAAAAAAAAAAAAAAAAAAAAAAAAAAAAAAAAAAAAAAAAAAAAAAAAAAAAAAAAAAAAAAAAAAAAAAAAAAAAAAAAAAAAAAAAAAAAAAAAAAAAAAAAAAAAAAAAAAAAAAAAAAAAAAAAAAAAAAAAAAAAAAAAAAAAAAAAAAAAAAAAAAAAAAAAAAAAAAAAAAAAAAAAAAAAAAAAAAAAAAAAAAAAAAAAAAAAAAAAAAAAAAAAAAAAAAAAAAAAAAAAAAAAAAAAAAAAAAAAAAAAAAAAAAAAAAAAAAAAAAAAAAAAAAAAAAAAAAAAAAAAAAAAAAAAAAAAAAAAAAAAAAAAAAAAAAAAAAAAAAAAAAAAAAAAAAAAAAAAAAAAAAAAAAAAAAAAAAAAAAAAAAAAAAAAAAAAAAAAAAAAAAAAAAAAAAAAAAAAAAAAAAAAAAAAAAAAAAAAAAAAAAAAAAAAAAAAAAAAAAAAAAAAAAAAAAAAAAAAAAAAAAAAAAAAAAAAAAAAAAAAAAAAAAAAAAAAAAAAAAAAAAAAAAAAAAAAAAAAAAAAAAAAAAAAAAAAAAAAAAAAAAAAAAAAAAAAAAAAAAAAAAAAAAAAAAAAAAAAAAAAAAAAAAAAAAAAAAAAAAAAAAAAAAAAAAAAAAAAAAAAAAAAAAAAAAAAAAAAAAAAAAAAAAAAAAAAAAAAAAAAAAAAAAAAAAAAAAAAAAAAAAAAAAAAAAAAAAAAAAAAAAAAAAAAAAAAAAAAAAAAAAAAAAAAAAAAAAAAAAAAAAAAAAAAAAAAAAAAAAAAAAAAAAAAAAAAAAAAAAAAAAAAAAAAAAAAAAAAAAAAAAAAAAAAAAAAAAAAAAAAAAAAAAAAAAAAAAAAAAAAAAAAAAAAAAAAAAAAAAAAAAAAAAAAAAAAAAAAAAAAAAAAAAAAAAAAAAAAAAAAAAAAAAAAAAAAAAAAAAAAAAAAAAAAAAAAAAAAAAAAAAAAAAAAAAAAAAAAAAAAAAAAAAAAAAAAAAAAAAAAAAAAAAAAAAAAAAAAAAAAAAAAAAAAAAAAAAAAAAAAAAAAAAAAAAAAAAAAAAAAAAAAAAAAAAAAAAAAAAAAAAAAAAAAAAAAAAAAAAAAAAAAAAAAAAAAAAAAAAAAAAAAAAAAAAAAAAAAAAAAAAAAAAAAAAAAAAAAAAAAAAAAAAAAAAAAAAAAAAAAAAAAAAAAAAAAAAAAAAAAAAAAAAAAAAAAAAAAAAAAAAAAAAAAAAAAAAAAAAAAAAAAAAAAAAAAAAAAAAAAAAAAAAAAAAAAAAAAAAAAAAAAAAAAAAAAAAAAAAAAAAAAAAAAAAAAAAAAAAAAAAAAAAAAAAAAAAAAAAAAAAAAAAAAAAAAAAAAAAAAAAAAAAAAAAAAAAAAAAAAAAAAAAAAAAAAAAAAAAAAAAAAAAAAAAAAAAAAAAAAAAAAAAAAAAAAAAAAAAAAAAAAAAAAAAAAAAAAAAAAAAAAAAAAAAAAAAAAAAAAAAAAAAAAAAAAAAAAAAAAAAAAAAAAAAAAAAAAAAAAAAAAAAAAAAAAAAAAAAAAAAAAAAAAAAAAAAAAAAAAAAAAAAAAAAAAAAAAAAAAAAAAAAAAAAAAAAAAAAAAAAAAAAAAAAAAAAAAAAAAAAAAAAAAAAAAAAAAAAAAAAAAAAAAAAAAAAAAAAAAAAAAAAAAAAAAAAAAAAAAAAAAAAAAAAAAAAAAAAAAAAAAAAAAAAAAAAAAAAAAAAAAAAAAAAAAAAAAAAAAAAAAAAAAAAAAAAAAAAAAAAAAAAAAAAAAAAAAAAAAAAAAAAAAAAAAAAAAAAAAAAAAAAAAAAAAAAAAAAAAAAAAAAAAAAAAAAAAAAAAAAAAAAAAAAAAAAAAAAAAAAAAAAAAAAAAAAAAAAAAAAAAAAAAAAAAAAAAAAAAAAAAAAAAAAAAAAAAAAAAAAAAAAAAAAAAAAAAAAAAAAAAAAAAAAAAAAAAAAAAAAAAAAAAAAAAAAAAAAAAAAAAAAAAAAAAAAAAAAAAAAAAAAAAAAAAAAAAAAAAAAAAAAAAAAAAAAAAAAAAAAAAAAAAAAAAAAAAAAAAAAAAAAAAAAAAAAAAAAAAAAAAAAAAAAAAAAAAAAAAAAAAAAAAAAAAAAAAAAAAAAAAAAAAAAAAAAAAAAAAAAAAAAAAAAAAAAAAAAAAAAAAAAAAAAAAAAAAAAAAAAAAAAAAAAAAAAAAAAAAAAAAAAAAAAAAAAAAAAAAAAAAAAAAAAAAAAAAAAAAAAAAAAAAAAAAAAAAAAAAAAAAAAAAAAAAAAAAAAAAAAAAAAAAAAAAAAAAAAAAAAAAAAAAAAAAAAAAAAAAAAAAAAAAAAAAAAAAAAAAAAAAAAAAAAAAAAAAAAAAAAAAAAAAAAAAAAAAAAAAAAAAAAAAAAAAAAAAAAAAAAAAAAAAAAAAAAAAAAAAAAAAAAAAAAAAAAAAAAAAAAAAAAAAAAAAAAAAAAAAAAAAAAAAAAAAAAAAAAAAAAAAAAAAAAAAAAAAAAAAAAAAAAAAAAAAAAAAAAAAAAAAAAAAAAAAAAAAAAAAAAAAAAAAAAAAAAAAAAAAAAAAAAAAAAAAAAAAAAAAAAAAAAAAAAAAAAAAAAAAAAAAAAAAAAAAAAAAAAAAAAAAAAAAAAAAAAAAAAAAAAAAAAAAAAAAAAAAAAAAAAAAAAAAAAAAAAAAAAAAAAAAAAAAAAAAAAAAAAAAAAAAAAAAAAAAAAAAAAAAAAAAAAAAAAAAAAAAAAAAAAAAAAAAAAAAAAAAAAAAAAAAAAAAAAAAAAAAAAAAAAAAAAAAAAAAAAAAAAAAPZYQC/xP7N0mhxbfV1efpYyPZRKsEHADIEO4ArzYvyZyCg589nYTeUHQ9VpI3WeJeEnOmQV+wyT8E6i8a3ffC9QbMI=</c2pa:manifest></metadata>
<title>ZIA GOODS</title>
<rect width="512" height="512" fill="#162B96"></rect>
<g transform="translate(46.08 145.45) scale(0.45)"><path fill="#FFFCEB" fill-rule="evenodd" d="M919.5 0.25L923.75 0L927.25 1L930.75 3L935 7.75L936.5 10.75L936.5 19.25L932.5 25.75L929.75 28L924.75 30L919.25 30L912.75 27L909 22.75L907 17.25L907 13.25L908.5 8.25L913.75 2.5L919.25 0.5ZM918.5 2.25L925.25 2L930.75 5L933.5 8.25L935 12.25L935 17.75L932.5 23.25L929.75 26L925.75 28L918.25 28L914.25 26L911 22.75L908.5 16.75L909 11.25L911 7.25L913.75 4.5L918.25 2.5ZM916.5 9.25L924.25 9L927 11.75L927 14.75L925 17.25L926.5 21.25L924.25 21L921.75 18L919.25 18L919 20.75L917.25 21.5L916.5 20.75L916.5 9.75ZM919.5 11.25L923.75 11.5L924.5 14.25L923.25 15.5L919.25 15.5L919.25 11.5ZM0.5 42.25L411.25 42L421.25 44L425.25 46L432.25 50.5L440 58.25L446.5 69.25L449.5 79.25L449.5 142.75L446.5 155.75L440.5 169.75L434.5 178.75L424.75 188.5L413.25 196L392.25 207L382.75 213L360.75 224.5L240.25 292L231.75 296L222.25 302L201.25 313L58.5 392.75L61.75 392L86.25 380L87.75 380L92.75 377L105.75 371L107.25 371L120.75 364L208.25 324L221.75 317L234.25 312L239.25 309L262.25 299L269.25 295L318.25 273L323.25 270L326.75 269L331.75 266L333.25 266L379.25 244L380.75 244L413.75 228L426.75 223.5L435.25 224L440.25 226L446.5 231.25L449.5 237.75L450 242.25L450 493.75L449.25 494.5L44.25 494.5L35.25 493L26.25 489.5L17.75 484L11 477.75L3.5 466.25L0.5 456.25L0.5 395.75L3.5 381.25L7.5 369.75L13 358.25L20.5 346.75L31.75 334L46.75 322L394.5 107.25L393.25 107L377.75 115L373.25 118L335.75 137L333.25 139L302.75 155L293.75 159L291.25 161L253.75 180L243.75 186L183.25 217L161.75 229L152.75 233L149.25 235.5L122.25 249L117.75 252L93.75 264L91.25 266L80.25 271L77.75 273L70.75 276L35.75 295L25.75 300L22.25 301L15.25 301L8.75 298L3.5 293.25L0.5 287.25L0 283.75L0.25 42.5ZM633 43.25L939 43.25L939 114.75L937.5 128.75L934 141.75L929.5 152.75L924.5 161.75L916.5 172.25L909.75 179L900.75 186L886.75 193L871.75 197L861.25 198L851.25 197.5L763.25 187L759.75 186L729.75 183L726.25 182L721.25 182L709.75 180L704.75 180L685.25 177L646.75 173L643.25 172L638.25 171.5L637.5 172.25L885.75 448L886 447.25L874 431.25L727.5 240.75L721.5 230.75L720 225.75L720 219.25L721.5 214.75L726.75 209L732.75 207L740.25 207L750.75 209L762.75 210L765.75 211L770.25 211L773.25 212L777.75 212L848.75 222L853.25 222L856.25 223L905.25 229L908.25 230L912.75 230L923.25 232L927.75 232L930.75 233L935.25 233L939 234.25L939 493.75L938.25 494.5L662.25 494.5L653.75 494L634.25 491L615.75 486L599.75 480L587.25 474L564.75 460L548.75 447L536.5 434.75L521.5 415.75L508.5 394.25L498.5 371.25L492.5 350.75L488.5 323.75L488.5 186.75L490.5 171.75L494.5 154.75L502.5 133.75L514.5 112.25L525.5 97.75L543.25 80L560.75 67L585.75 54L611.25 46L614.75 46L623.25 44L632.75 43.5ZM669 64.25L708.75 64L709.5 64.75L709.5 72.25L708.75 73L671.75 73L671 74.75L671.75 102L699.25 102L700 101.25L700 92.75L699.25 92L681.75 92L681 91.25L681 83.75L681.75 83L708.75 83L709.5 83.75L709.5 102.25L707.5 107.25L702.25 111L669.25 111L664 107.75L662 103.25L662 71.75L663.5 68.25L666.75 65L668.75 64.5ZM721.5 64.25L754.75 64L757.75 65.5L760.5 68.25L761.5 70.75L761.5 104.25L760 107.25L757.25 110L754.75 111L721.25 111L716.5 107.75L714.5 103.75L714.5 71.25L716.5 67.25L719.25 65L721.25 64.5ZM773.5 64.25L806.75 64L809.25 65L812.5 68.25L814 72.25L814 102.75L812 107.75L806.75 111L773.25 111L768.5 107.25L766.5 102.75L766.5 72.75L768 68.25L770.75 65.5L773.25 64.5ZM819 64.25L858.75 64L862.25 65.5L864.5 67.75L866 70.75L866.5 75.75L866.5 101.75L865.5 105.75L862.25 109.5L859.25 111L819.25 111L819 64.75ZM878 64.25L917.75 64L918.5 64.75L918.5 72.25L917.75 73L881.25 73L880.5 73.75L880.5 82.25L881.25 83L911.25 83L913.75 84L917.5 87.75L918.5 90.75L918.5 103.75L916.5 107.75L911.75 111L871.5 110.75L871 108.25L871.75 102L908.75 102L909.5 98.75L909.5 93.75L908.25 92L877.75 92L872.5 87.75L871.5 85.75L871.5 70.25L875.25 65.5L877.75 64.5ZM724 73.25L751.75 73L752.5 73.75L752.5 101.25L751.75 102L724.25 102L723.5 101.25L723.75 73.5ZM776.5 73.25L804.5 73.25L804.5 101.75L776.75 102L776 101.25L776.25 73.5ZM828.5 73.25L856.25 73L857 73.75L857 101.25L856.25 102L828.5 101.75L828.5 73.75ZM278 426.25L320.25 426L322.25 427L324.5 429.75L323.5 433.75L294 463.75L296.25 464.5L323.75 464L324.5 464.75L324.5 472.75L323.75 473.5L279.75 473L277.5 470.25L277.5 467.25L278.5 465.75L307.5 436.75L307.5 435.75L277.75 435.5L277.75 426.5ZM330 426.25L375.75 426L376.5 426.75L377 434.25L376.25 435.5L358.25 435.5L357.5 436.75L357.5 463.25L359.25 464.5L375.75 464L377 465.75L376.5 473.25L330.25 473.5L329.5 472.75L329.75 464.5L348.5 463.75L348.5 436.25L347.75 435.5L330.25 435.5L329.5 434.75L329.75 426.5ZM390 426.25L420.75 426L423.75 427L427.5 430.25L429 433.75L429 473.25L420 473.25L420 455.25L419.25 454.5L391.75 454.5L391 455.25L391 472.75L390.25 473.5L382 473.25L382 433.25L383.5 430.25L386.25 427.5L389.75 426.5ZM391.5 435.75L419.25 435.5L420 436.25L420 444.75L391.25 445L391.25 436Z"></path></g>
</svg>